<svg xmlns="http://www.w3.org/2000/svg" viewBox="0 0 300 201.27119583932682" preserveAspectRatio="xMidYMid meet" class="css-18yrpox" id="hffgeaff"><defs id="SvgjsDefs1186"/><g id="SvgjsG1187" featurekey="e7LhAk-0" transform="matrix(3.912618427265025,0,0,3.912618427265025,87.39810866191307,0)" fill="#41a4c3"><g xmlns="http://www.w3.org/2000/svg" display="none"><rect x="-111.333" y="-60.667" display="inline" fill="#41a4c3" width="473.333" height="236"/></g><g xmlns="http://www.w3.org/2000/svg" display="none"><g display="inline"><path fill="#41a4c3" d="M31.335,4.35L16,0v0l0,0l0,0v0L0.665,4.35C0.665,4.35,1.58,19.376,16,32v0l0,0l0,0v0    C30.42,19.376,31.335,4.35,31.335,4.35z"/><path fill="#41a4c3" d="M16,0L16,0L16,0L16,0L16,0L0.665,4.35C0.665,4.35,1.58,19.376,16,32v0l0,0l0,0v0"/></g><g display="inline"><polygon fill="#41a4c3" points="16,5.651 17.654,11.187 23.005,11.187 18.676,14.608 20.329,20.144 16,16.723 11.671,20.144     13.324,14.608 8.995,11.187 14.346,11.187   "/></g></g><g xmlns="http://www.w3.org/2000/svg" display="none"><g display="inline"><g><path fill="#41a4c3" d="M16,1.04l14.25,4.042c-0.179,1.354-0.703,4.332-2.14,8.082C26.351,17.758,22.83,24.461,16,30.66     c-6.83-6.199-10.35-12.902-12.11-17.496C2.453,9.413,1.929,6.435,1.75,5.082L16,1.04 M16,0L16,0L16,0L16,0L0.665,4.35     C0.665,4.35,1.58,19.376,16,32v0l0,0l0,0v0C30.42,19.376,31.335,4.35,31.335,4.35L16,0L16,0L16,0z"/></g></g><g display="inline"><path fill="#41a4c3" d="M16,9.145l0.696,2.328l0.213,0.714h0.745h2.473l-2.071,1.637l-0.532,0.421l0.194,0.65l0.747,2.502    l-1.845-1.458L16,15.448l-0.62,0.49l-1.845,1.458l0.747-2.502l0.194-0.65l-0.532-0.421l-2.071-1.637h2.473h0.745l0.213-0.714    L16,9.145 M16,5.651l-1.654,5.536H8.995l4.329,3.421l-1.654,5.536L16,16.723l4.329,3.421l-1.654-5.536l4.329-3.421h-5.351    L16,5.651L16,5.651z"/></g></g><g xmlns="http://www.w3.org/2000/svg" display="none"><g display="inline"><path fill="#41a4c3" d="M16,31.333C3.504,20.197,1.478,7.144,1.203,4.717L16,0.52l14.797,4.197    C30.522,7.144,28.496,20.197,16,31.333z"/><g><path d="M16,1.04l14.25,4.042c-0.179,1.354-0.703,4.332-2.14,8.082C26.351,17.758,22.83,24.461,16,30.66     c-6.83-6.199-10.35-12.902-12.11-17.496C2.453,9.413,1.929,6.435,1.75,5.082L16,1.04 M16,0L16,0L16,0L16,0L0.665,4.35     C0.665,4.35,1.58,19.376,16,32v0l0,0l0,0v0C30.42,19.376,31.335,4.35,31.335,4.35L16,0L16,0L16,0z"/></g></g><g display="inline"><polygon fill="#41a4c3" points="16,16.085 12.604,18.771 13.9,14.427 10.434,11.687 14.719,11.687 16,7.398 17.281,11.687     21.566,11.687 18.1,14.427 19.396,18.771   "/><g><path fill="#41a4c3" d="M16,9.145l0.696,2.328l0.213,0.714h0.745h2.473l-2.071,1.637l-0.532,0.421l0.194,0.65l0.747,2.502     l-1.845-1.458L16,15.448l-0.62,0.49l-1.845,1.458l0.747-2.502l0.194-0.65l-0.532-0.421l-2.071-1.637h2.473h0.745l0.213-0.714     L16,9.145 M16,5.651l-1.654,5.536H8.995l4.329,3.421l-1.654,5.536L16,16.723l4.329,3.421l-1.654-5.536l4.329-3.421h-5.351     L16,5.651L16,5.651z"/></g></g></g><g xmlns="http://www.w3.org/2000/svg"><path d="M16,0L16,0L16,0L16,0L16,0L0.665,4.35C0.665,4.35,1.58,19.375,16,32v0l0,0l0,0v0C30.42,19.375,31.335,4.35,31.335,4.35   L16,0z M16,16.723l-4.329,3.421l1.654-5.536l-4.329-3.421h5.351L16,5.651l1.654,5.536h5.351l-4.329,3.421l1.654,5.536L16,16.723z"/></g></g><g id="SvgjsG1188" featurekey="Qg0WB5-0" transform="matrix(3.724103287192447,0,0,3.724103287192447,-1.4851048574295678,125.82086771580073)" fill="#58d5d3"><path d="M5.86 5.539999999999999 q0.01 -0.06 0.065 -0.13 t0.135 -0.13 t0.17 -0.095 t0.17 -0.035 l2.56 0 q0.17 0 0.29 0.105 t0.18 0.185 l0.25 0.57 l5.25 13.54 q0.08 0.2 -0.03 0.325 t-0.38 0.125 l-2.87 0 q-0.23 0 -0.355 -0.085 t-0.195 -0.285 q-0.2 -0.51 -0.39 -1.015 t-0.38 -1.015 l-5.31 0 q-0.19 0.51 -0.385 1.015 t-0.385 1.015 q-0.13 0.37 -0.51 0.37 l-2.95 0 q-0.19 0 -0.315 -0.1 t-0.045 -0.3 z M7.68 9.82 q-0.19 0.51 -0.385 1.1 t-0.385 1.19 t-0.385 1.185 t-0.385 1.095 l3.07 0 z M16.77 7.470000000000001 q0.13 -0.11 0.275 -0.14 t0.275 -0.03 l1.51 0 q0.18 0 0.31 0.065 t0.22 0.175 t0.145 0.25 t0.105 0.29 l0.31 1.28 q0.15 -0.31 0.435 -0.705 t0.725 -0.74 t1.045 -0.58 t1.405 -0.235 q1.14 0 2.07 0.44 t1.585 1.2 t1.015 1.775 t0.36 2.165 l0 6.55 q0 0.38 -0.165 0.575 t-0.525 0.195 l-2.31 0 q-0.43 0 -0.59 -0.145 t-0.16 -0.565 l0 -6.51 q0 -0.43 -0.195 -0.815 t-0.515 -0.68 t-0.725 -0.465 t-0.825 -0.17 q-0.36 0 -0.735 0.16 t-0.69 0.445 t-0.53 0.67 t-0.245 0.835 l0 6.5 q0 0.17 -0.065 0.34 t-0.195 0.26 q-0.13 0.08 -0.245 0.11 t-0.265 0.03 l-2.26 0 q-0.43 0 -0.62 -0.21 t-0.19 -0.56 l0 -11.19 q0 -0.19 0.085 -0.35 t0.235 -0.25 z M41.400000000000006 18.48 q-0.88 0.81 -1.98 1.265 t-2.33 0.455 q-1.37 0 -2.59 -0.5 t-2.14 -1.385 t-1.46 -2.085 t-0.54 -2.61 q0 -0.88 0.215 -1.705 t0.61 -1.545 t0.96 -1.325 t1.265 -1.035 t1.52 -0.67 t1.73 -0.24 q0.83 0 1.61 0.22 t1.465 0.62 t1.255 0.96 t0.98 1.225 t0.635 1.42 t0.225 1.555 q0 0.52 -0.015 0.85 t-0.155 0.525 t-0.465 0.27 t-0.955 0.075 l-7.2 0 q0.1 0.64 0.405 1.07 t0.705 0.685 t0.85 0.365 t0.85 0.11 q0.36 0 0.74 -0.075 t0.735 -0.2 t0.65 -0.29 t0.475 -0.345 q0.16 -0.13 0.275 -0.195 t0.245 -0.065 t0.265 0.09 t0.305 0.26 l1.06 1.2 q0.11 0.13 0.14 0.235 t0.03 0.215 q0 0.2 -0.11 0.345 t-0.26 0.255 z M36.59 10.15 q-0.39 0 -0.755 0.155 t-0.685 0.415 t-0.575 0.59 t-0.415 0.67 l5.11 0 q-0.21 -0.39 -0.455 -0.72 t-0.56 -0.58 t-0.72 -0.39 t-0.945 -0.14 z M46.82 16.05 q0.27 0.27 0.585 0.455 t0.605 0.3 t0.51 0.165 t0.3 0.05 q0.19 0 0.485 -0.015 t0.565 -0.09 t0.465 -0.245 t0.195 -0.48 q0 -0.28 -0.11 -0.445 t-0.32 -0.28 t-0.515 -0.205 t-0.685 -0.21 q-1.2 -0.32 -1.98 -0.77 t-1.235 -1.005 t-0.635 -1.195 t-0.18 -1.35 q0 -0.83 0.33 -1.51 t0.94 -1.165 t1.46 -0.75 t1.89 -0.265 q0.63 0 1.18 0.105 t1.05 0.33 t0.975 0.58 t0.945 0.845 q0.17 0.2 0.175 0.375 t-0.225 0.375 q-0.39 0.32 -0.745 0.63 t-0.735 0.69 q-0.12 0.1 -0.24 0.125 t-0.23 -0.005 t-0.21 -0.1 t-0.18 -0.17 q-0.35 -0.39 -0.8 -0.525 t-0.84 -0.135 q-0.49 0 -0.78 0.17 t-0.27 0.52 q0.02 0.26 0.195 0.405 t0.43 0.235 t0.54 0.145 t0.525 0.125 q0.9 0.29 1.65 0.63 t1.3 0.835 t0.855 1.185 t0.305 1.68 t-0.395 1.77 t-1.085 1.31 t-1.635 0.81 t-2.035 0.28 q-0.62 0 -1.26 -0.11 t-1.24 -0.355 t-1.14 -0.63 t-0.96 -0.935 q-0.11 -0.14 -0.165 -0.295 t-0.05 -0.305 t0.06 -0.275 t0.175 -0.215 l1.29 -1.29 q0.24 -0.2 0.425 -0.14 t0.475 0.34 z M68.28999999999999 19.83 q-0.13 0.11 -0.275 0.14 t-0.275 0.03 l-1.51 0 q-0.18 0 -0.31 -0.065 t-0.22 -0.175 t-0.15 -0.25 t-0.1 -0.29 l-0.31 -1.28 q-0.15 0.31 -0.435 0.705 t-0.725 0.74 t-1.05 0.58 t-1.4 0.235 q-1.14 0 -2.07 -0.44 t-1.585 -1.2 t-1.015 -1.775 t-0.36 -2.165 l0 -6.55 q0 -0.38 0.165 -0.575 t0.525 -0.195 l2.31 0 q0.43 0 0.59 0.145 t0.16 0.565 l0 6.51 q0 0.43 0.195 0.815 t0.515 0.68 t0.725 0.465 t0.825 0.17 q0.36 0 0.745 -0.17 t0.71 -0.455 t0.535 -0.67 t0.21 -0.815 l0 -6.5 q0 -0.17 0.065 -0.34 t0.195 -0.26 q0.13 -0.08 0.245 -0.11 t0.265 -0.03 l2.26 0 q0.43 0 0.62 0.21 t0.19 0.56 l0 11.19 q0 0.19 -0.085 0.35 t-0.235 0.25 z M70.95 8.04 q0 -0.17 0.075 -0.325 t0.185 -0.245 q0.26 -0.17 0.54 -0.17 l1.51 0 q0.19 0 0.3 0.07 t0.185 0.18 t0.13 0.25 t0.135 0.28 q0.02 0.04 0.08 0.195 t0.13 0.34 t0.135 0.35 t0.085 0.215 q0.3 -0.33 0.575 -0.695 t0.585 -0.675 t0.69 -0.51 t0.9 -0.2 q0.54 0 0.965 0.08 t0.805 0.235 t0.755 0.395 t0.815 0.56 q0.69 0.37 0.26 1.1 l-0.91 1.55 q-0.2 0.3 -0.49 0.37 t-0.63 -0.09 q-0.43 -0.42 -0.875 -0.625 t-1.015 -0.205 q-0.39 0 -0.685 0.11 t-0.535 0.31 t-0.45 0.48 t-0.42 0.62 l0 7.24 q0 0.38 -0.185 0.575 t-0.615 0.195 l-2.25 0 q-0.78 0 -0.78 -0.77 l0 -11.19 z"/></g></svg>