<svg id="visual" viewBox="0 0 900 600" width="900" height="600" xmlns="http://www.w3.org/2000/svg" xmlns:xlink="http://www.w3.org/1999/xlink" version="1.1"><path d="M0 514L21.5 497.3C43 480.7 86 447.3 128.8 434C171.7 420.7 214.3 427.3 257.2 436.3C300 445.3 343 456.7 385.8 447.7C428.7 438.7 471.3 409.3 514.2 408.5C557 407.7 600 435.3 642.8 447.2C685.7 459 728.3 455 771.2 448.8C814 442.7 857 434.3 878.5 430.2L900 426L900 601L878.5 601C857 601 814 601 771.2 601C728.3 601 685.7 601 642.8 601C600 601 557 601 514.2 601C471.3 601 428.7 601 385.8 601C343 601 300 601 257.2 601C214.3 601 171.7 601 128.8 601C86 601 43 601 21.5 601L0 601Z" fill="#0066FF" stroke-linecap="round" stroke-linejoin="miter"></path></svg>